<svg width="44" height="46" viewBox="0 0 44 46" fill="none" xmlns="http://www.w3.org/2000/svg">
<path d="M7.0868 7.57715C5.57429 7.57715 4.33789 8.87573 4.33789 10.4927V18.2595H6.1745V10.4927C6.1745 9.95797 6.58263 9.52521 7.0868 9.52521H29.0541V7.57715H7.0868Z" fill="black"/>
<path d="M7.08652 36.2947C6.58235 36.2947 6.17422 35.8618 6.17422 35.327V25.6123H4.34961V35.327C4.34961 36.9313 5.57402 38.2426 7.09853 38.2426H16.2576V36.3074H7.08652V36.2947Z" fill="black"/>
<path d="M29.7143 38.621L7.48289 15.0409C7.12277 14.6589 6.54657 14.6589 6.18645 15.0409L0.952707 20.5921C0.592587 20.9741 0.592587 21.5853 0.952707 21.9673L23.1841 45.5472C23.5443 45.9292 24.1204 45.9292 24.4806 45.5472L29.7143 39.996C30.0744 39.6268 30.0744 39.0157 29.7143 38.621C29.7143 38.6337 29.7143 38.6337 29.7143 38.621ZM23.8323 43.4846L2.89736 21.2797L6.83467 17.1035L27.7697 39.3212L23.8323 43.4846Z" fill="black"/>
<path d="M40.2419 36.1229H26.5093V38.0582H36.5806V42.9091C36.5806 43.4438 36.9888 43.8768 37.4929 43.8768H40.2419C42.2585 43.9277 43.9391 42.2343 43.9991 40.0953C44.0471 37.9563 42.4506 36.1738 40.4339 36.1101C40.3619 36.1228 40.3019 36.1229 40.2419 36.1229ZM40.2419 41.9542H38.4173V38.0709H40.2419C41.2502 38.0709 42.0785 38.9366 42.0785 40.0188C42.0785 41.1011 41.2502 41.9414 40.2419 41.9542Z" fill="black"/>
<path d="M40.2371 6.99243H35.6636V8.92776H40.2371C41.2454 8.92776 42.0617 9.79343 42.0617 10.8757V40.007H43.8863V10.8757C43.8983 8.73665 42.2538 6.99243 40.2371 6.99243Z" fill="black"/>
<path d="M17.1973 26.9769L14.4443 29.8894L15.7359 31.2558L18.4888 28.3433L17.1973 26.9769Z" fill="black"/>
<path d="M13.6021 23.1612L10.8491 26.0737L12.1406 27.4401L14.8936 24.5276L13.6021 23.1612Z" fill="black"/>
<path d="M20.79 30.7914L18.0371 33.7039L19.3286 35.0702L22.0816 32.1578L20.79 30.7914Z" fill="black"/>
<path d="M24.3877 34.61L21.6348 37.5225L22.9263 38.8888L25.6792 35.9764L24.3877 34.61Z" fill="black"/>
<path d="M10.0044 19.3453L7.25146 22.2578L8.54299 23.6242L11.2959 20.7117L10.0044 19.3453Z" fill="black"/>
<path d="M39.447 2.14847L38.1866 0.811679C37.1183 -0.27056 35.4257 -0.27056 34.3573 0.811679L20.4327 15.581C20.0726 15.963 20.0726 16.5741 20.4327 16.956L24.226 20.9795C24.5861 21.3614 25.1623 21.3614 25.5224 20.9795L39.447 6.21013C40.5034 5.08969 40.5034 3.2689 39.447 2.14847ZM38.1506 4.83495L24.8742 18.9169L22.3773 16.2686L35.6418 2.1867C35.9899 1.8302 36.5301 1.8302 36.8782 2.1867L38.1386 3.52365C38.4867 3.88015 38.4867 4.46571 38.1506 4.83495Z" fill="black"/>
<path d="M24.9521 19.064L21.0028 20.4647L22.3232 16.263L20.5826 15.6519L18.686 21.6869C18.5299 22.1962 18.794 22.7436 19.2742 22.9092C19.3702 22.9346 19.4663 22.9601 19.5623 22.9601C19.6583 22.9601 19.7543 22.9474 19.8504 22.9092L25.5403 20.8975L24.9521 19.064Z" fill="black"/>
<path d="M33.2534 3.51744L31.9619 4.88379L35.7599 8.90189L37.0514 7.53554L33.2534 3.51744Z" fill="black"/>
<path d="M33.1823 20.9753H19.4497V22.9106H33.1823V20.9753Z" fill="black"/>
<path d="M36.6996 20.9753H34.875V22.9106H36.6996V20.9753Z" fill="black"/>
<path d="M40.2348 20.9753H38.4102V22.9106H40.2348V20.9753Z" fill="black"/>
</svg>
