<svg width="53" height="54" viewBox="0 0 53 54" fill="none" xmlns="http://www.w3.org/2000/svg">
<circle cx="26.5" cy="27.4985" r="26.5" fill="#FFF0E6"/>
<path fill-rule="evenodd" clip-rule="evenodd" d="M26.5 17.7485C26.9142 17.7485 27.25 18.0843 27.25 18.4985V19.5332C31.0697 19.8884 34.1102 22.9289 34.4653 26.7485H35.5C35.9142 26.7485 36.25 27.0843 36.25 27.4985C36.25 27.9127 35.9142 28.2485 35.5 28.2485H34.4653C34.1102 32.0682 31.0697 35.1087 27.25 35.4638V36.4985C27.25 36.9127 26.9142 37.2485 26.5 37.2485C26.0858 37.2485 25.75 36.9127 25.75 36.4985V35.4638C21.9303 35.1087 18.8898 32.0682 18.5347 28.2485H17.5C17.0858 28.2485 16.75 27.9127 16.75 27.4985C16.75 27.0843 17.0858 26.7485 17.5 26.7485H18.5347C18.8898 22.9289 21.9303 19.8884 25.75 19.5332V18.4985C25.75 18.0843 26.0858 17.7485 26.5 17.7485ZM26.5 33.9985C30.0899 33.9985 33 31.0884 33 27.4985C33 23.9087 30.0899 20.9985 26.5 20.9985C22.9101 20.9985 20 23.9087 20 27.4985C20 31.0884 22.9101 33.9985 26.5 33.9985Z" fill="#FC6B21"/>
<path fill-rule="evenodd" clip-rule="evenodd" d="M26.5 28.9985C27.3284 28.9985 28 28.327 28 27.4985C28 26.6701 27.3284 25.9985 26.5 25.9985C25.6716 25.9985 25 26.6701 25 27.4985C25 28.327 25.6716 28.9985 26.5 28.9985ZM26.5 30.4985C28.1569 30.4985 29.5 29.1554 29.5 27.4985C29.5 25.8417 28.1569 24.4985 26.5 24.4985C24.8431 24.4985 23.5 25.8417 23.5 27.4985C23.5 29.1554 24.8431 30.4985 26.5 30.4985Z" fill="#FC6B21"/>
</svg>
