<svg width="17" height="16" viewBox="0 0 17 16" fill="none" xmlns="http://www.w3.org/2000/svg">
<path d="M2.65584 2.34416C-0.467817 5.46782 -0.467008 10.533 2.65706 13.6571C5.78072 16.7807 10.8459 16.7815 13.9696 13.6579C17.0948 10.5326 17.094 5.4666 13.9708 2.34335C10.8467 -0.780716 5.78112 -0.78112 2.65584 2.34416ZM12.2768 7.10065L12.2756 8.90137C12.2756 8.90137 9.32108 8.7974 9.21468 8.9038C9.10989 9.00858 9.21346 11.9635 9.21346 11.9635L7.41233 11.9652C7.41233 11.9652 7.53856 9.02962 7.41355 8.90461C7.28651 8.77758 4.35057 8.9034 4.35057 8.9034L4.35017 7.10024C4.35017 7.10024 7.31766 7.19289 7.41072 7.09984C7.50457 7.00598 7.41233 4.03808 7.41233 4.03808L9.21508 4.03889C9.21508 4.03889 9.10909 6.99546 9.21589 7.10227C9.31744 7.20381 12.2768 7.10065 12.2768 7.10065Z" fill="#E8581B"/>
</svg>
