<svg width="21" height="20" viewBox="0 0 21 20" fill="none" xmlns="http://www.w3.org/2000/svg">
<path fill-rule="evenodd" clip-rule="evenodd" d="M14.9703 12.8986L20.4871 18.2787C20.681 18.4679 20.7899 18.7245 20.7898 18.992C20.7897 19.2595 20.6806 19.5161 20.4866 19.7052C20.2925 19.8943 20.0294 20.0004 19.7551 20.0004C19.4808 20.0003 19.2177 19.8939 19.0238 19.7047L13.507 14.3246C11.8578 15.5703 9.78399 16.1565 7.70735 15.964C5.63071 15.7715 3.70728 14.8147 2.32834 13.2883C0.9494 11.7618 0.218537 9.78044 0.284432 7.74717C0.350328 5.71389 1.20803 3.78147 2.68306 2.34301C4.15808 0.904546 6.13963 0.0681054 8.22459 0.00384375C10.3096 -0.0604179 12.3413 0.652326 13.9065 1.99708C15.4718 3.34184 16.4529 5.21759 16.6503 7.24275C16.8477 9.2679 16.2466 11.2903 14.9693 12.8986H14.9703ZM8.48449 13.9996C10.1162 13.9996 11.6812 13.3675 12.835 12.2423C13.9888 11.1171 14.637 9.59093 14.637 7.99962C14.637 6.40832 13.9888 4.88219 12.835 3.75697C11.6812 2.63174 10.1162 1.9996 8.48449 1.9996C6.85273 1.9996 5.28781 2.63174 4.13398 3.75697C2.98016 4.88219 2.33195 6.40832 2.33195 7.99962C2.33195 9.59093 2.98016 11.1171 4.13398 12.2423C5.28781 13.3675 6.85273 13.9996 8.48449 13.9996Z" fill="#979797"/>
</svg>
