<svg width="22" height="22" viewBox="0 0 22 22" fill="none" xmlns="http://www.w3.org/2000/svg">
<path fill-rule="evenodd" clip-rule="evenodd" d="M16.9583 0.916504C16.452 0.916504 16.0416 1.32691 16.0416 1.83317C16.0416 2.33943 16.452 2.74984 16.9583 2.74984H17.9536L14.9351 5.76832C14.5771 6.1263 14.5771 6.70671 14.9351 7.06469C15.2931 7.42267 15.8735 7.42267 16.2315 7.06469L19.25 4.0462V5.0415C19.25 5.54777 19.6604 5.95817 20.1666 5.95817C20.6729 5.95817 21.0833 5.54777 21.0833 5.0415V1.83317C21.0833 1.32691 20.6729 0.916504 20.1666 0.916504H16.9583ZM18.6539 16.9912C17.4625 18.1827 16.0826 18.972 14.373 18.8714C12.6281 18.7688 10.3166 17.7285 7.31074 14.7226C4.30485 11.7167 3.26455 9.40519 3.16191 7.66031C3.06135 5.95077 3.85066 4.57087 5.04211 3.37942C5.40009 3.02144 5.98049 3.02144 6.33847 3.37942L8.46528 5.50624C8.90159 5.94254 8.90159 6.64994 8.46528 7.08624C7.55616 7.99537 7.01195 9.4852 7.77893 10.8449C8.10942 11.4308 8.5833 12.1061 9.25528 12.7781C9.92727 13.45 10.6025 13.9239 11.1885 14.2544C12.5481 15.0214 14.038 14.4772 14.9471 13.5681C15.3834 13.1317 16.0908 13.1317 16.5271 13.5681L18.6539 15.6949C19.0119 16.0528 19.0119 16.6332 18.6539 16.9912ZM6.01438 16.019C9.16621 19.1708 11.8781 20.5612 14.2654 20.7016C16.688 20.8441 18.549 19.6889 19.9503 18.2876C21.0242 17.2136 21.0242 15.4724 19.9503 14.3985L17.8235 12.2717C16.6712 11.1194 14.803 11.1194 13.6507 12.2717C13.1173 12.8052 12.5064 12.893 12.0892 12.6576C11.6316 12.3995 11.0933 12.0233 10.5516 11.4817C10.01 10.94 9.63382 10.4017 9.37573 9.94415C9.14038 9.52692 9.22818 8.91607 9.76164 8.38261C10.9139 7.23034 10.9139 5.36214 9.76164 4.20987L7.63483 2.08306C6.56089 1.00912 4.81969 1.00912 3.74574 2.08306C2.34447 3.48434 1.18923 5.34534 1.33174 7.76796C1.47217 10.1552 2.86255 12.8671 6.01438 16.019Z" fill="black" fill-opacity="0.7"/>
</svg>
