<svg width="24" height="24" viewBox="0 0 24 24" fill="none" xmlns="http://www.w3.org/2000/svg">
<g id="Icons/Home">
<rect id="Bg" width="24" height="24" fill="white" fill-opacity="0.01"/>
<path id="Fill 1" fill-rule="evenodd" clip-rule="evenodd" d="M11.9935 2.869L20.3437 11.2192H3.64323L11.9935 2.869ZM15.3484 21.4387V17.1034C15.3484 16.6761 15.0015 16.3292 14.5742 16.3292H9.46421C9.03669 16.3292 8.68998 16.6761 8.68998 17.1034V21.4387H2.54847V12.7677H21.4384V21.4387H15.3484ZM10.2384 21.4387H13.7999V17.8776H10.2384V21.4387ZM1.77423 22.9869H9.33442C9.37686 22.9941 9.41974 23.0002 9.46421 23.0002H14.5742C14.6186 23.0002 14.6615 22.9941 14.704 22.9869H22.2127C22.6402 22.9869 22.9869 22.6402 22.9869 22.2129V11.9935C22.9869 11.9418 22.9817 11.8905 22.9716 11.8406C22.9648 11.8068 22.9528 11.7752 22.9418 11.7431C22.9366 11.7276 22.9336 11.7111 22.9273 11.6959C22.9129 11.6614 22.8939 11.6296 22.8747 11.5978C22.868 11.5865 22.8634 11.5741 22.856 11.563C22.8278 11.521 22.7957 11.4817 22.7601 11.4461L12.5408 1.22685C12.2384 0.924382 11.7485 0.924382 11.4461 1.22685L1.22685 11.4461C1.19119 11.4817 1.15914 11.5208 1.13115 11.5628C1.12325 11.5747 1.11805 11.5881 1.11083 11.6002C1.09232 11.6314 1.07359 11.6623 1.05959 11.6959C1.05305 11.7118 1.05011 11.7287 1.04447 11.7447C1.03363 11.7763 1.02212 11.8072 1.01535 11.8404C1.00542 11.8905 1 11.9418 1 11.9935V22.2129C1 22.6402 1.34671 22.9869 1.77423 22.9869Z" fill="#121212"/>
</g>
</svg>
