<svg width="53" height="53" viewBox="0 0 53 53" fill="none" xmlns="http://www.w3.org/2000/svg">
<circle cx="26.5" cy="26.5" r="26.5" fill="#E5F7FF"/>
<path fill-rule="evenodd" clip-rule="evenodd" d="M26.5 29C27.8807 29 29 27.8807 29 26.5C29 25.1193 27.8807 24 26.5 24C25.1193 24 24 25.1193 24 26.5C24 27.8807 25.1193 29 26.5 29ZM30.5 26.5C30.5 28.7091 28.7091 30.5 26.5 30.5C24.2909 30.5 22.5 28.7091 22.5 26.5C22.5 24.2909 24.2909 22.5 26.5 22.5C28.7091 22.5 30.5 24.2909 30.5 26.5Z" fill="#1FB9FC"/>
<path fill-rule="evenodd" clip-rule="evenodd" d="M25.405 17.3419L25.0174 18.5045C24.6906 19.4849 23.9735 20.1794 23.2224 20.5976C23.1583 20.6333 23.0949 20.67 23.0321 20.7077C22.2935 21.1511 21.3322 21.4257 20.3185 21.2183L19.1168 20.9723C18.9059 20.9292 18.6911 21.0258 18.5835 21.2122L17.9625 22.2878C17.8549 22.4741 17.8786 22.7085 18.0214 22.8695L18.8365 23.7886C19.5205 24.56 19.7655 25.5268 19.7518 26.3882C19.7506 26.4627 19.7506 26.5373 19.7518 26.6118C19.7655 27.4732 19.5205 28.4399 18.8365 29.2113L18.0214 30.1304C17.8786 30.2915 17.8549 30.5258 17.9625 30.7122L18.5835 31.7878C18.6911 31.9741 18.9059 32.0707 19.1168 32.0276L20.3184 31.7817C21.3321 31.5743 22.2934 31.8489 23.0321 32.2923C23.0949 32.33 23.1583 32.3667 23.2224 32.4024C23.9735 32.8206 24.6906 33.5151 25.0174 34.4955L25.405 35.6581C25.473 35.8623 25.6641 36 25.8793 36H27.1213C27.3365 36 27.5275 35.8623 27.5956 35.6581L27.9832 34.4955C28.3099 33.5151 29.027 32.8206 29.7782 32.4024C29.8423 32.3667 29.9057 32.33 29.9685 32.2923C30.7071 31.8489 31.6685 31.5743 32.6821 31.7817L33.8837 32.0276C34.0946 32.0707 34.3094 31.9741 34.417 31.7878L35.038 30.7122C35.1456 30.5258 35.1219 30.2915 34.9791 30.1304L34.1641 29.2114C33.4801 28.44 33.2351 27.4732 33.2487 26.6118C33.2499 26.5373 33.2499 26.4627 33.2487 26.3882C33.2351 25.5267 33.48 24.56 34.1641 23.7885L34.9791 22.8695C35.1219 22.7085 35.1456 22.4741 35.038 22.2878L34.417 21.2122C34.3094 21.0258 34.0946 20.9292 33.8838 20.9723L32.682 21.2183C31.6684 21.4257 30.7071 21.1511 29.9684 20.7076C29.9057 20.67 29.8422 20.6333 29.7782 20.5976C29.027 20.1794 28.3099 19.4849 27.9832 18.5045L27.5956 17.3419C27.5275 17.1377 27.3365 17 27.1213 17H25.8793C25.6641 17 25.473 17.1377 25.405 17.3419ZM23.5944 18.0302C23.4121 18.5769 22.9962 19.0067 22.4926 19.2871C22.4143 19.3307 22.3368 19.3755 22.2601 19.4216C21.7654 19.7186 21.1845 19.8644 20.6192 19.7487L19.4175 19.5028C18.5741 19.3302 17.7149 19.7167 17.2845 20.4622L16.6635 21.5378C16.2331 22.2833 16.328 23.2206 16.8991 23.8647L17.7142 24.7838C18.0961 25.2145 18.2611 25.7889 18.252 26.3644C18.2506 26.4548 18.2506 26.5452 18.252 26.6355C18.2611 27.2111 18.0961 27.7854 17.7142 28.2161L16.8991 29.1352C16.328 29.7793 16.2331 30.7167 16.6635 31.4622L17.2845 32.5378C17.7149 33.2833 18.5741 33.6697 19.4175 33.4971L20.6192 33.2512C21.1845 33.1356 21.7653 33.2814 22.26 33.5784C22.3368 33.6244 22.4143 33.6693 22.4926 33.7129C22.9962 33.9933 23.4121 34.4231 23.5944 34.9698L23.9819 36.1325C24.2542 36.9491 25.0184 37.5 25.8793 37.5H27.1213C27.9821 37.5 28.7464 36.9491 29.0186 36.1325L29.4062 34.9698C29.5884 34.4231 30.0044 33.9933 30.5079 33.7129C30.5862 33.6693 30.6638 33.6244 30.7405 33.5784C31.2352 33.2814 31.8161 33.1356 32.3814 33.2512L33.583 33.4971C34.4264 33.6697 35.2856 33.2833 35.716 32.5378L36.337 31.4622C36.7675 30.7167 36.6725 29.7793 36.1014 29.1352L35.2864 28.2162C34.9045 27.7855 34.7394 27.2111 34.7486 26.6356C34.75 26.5452 34.75 26.4548 34.7486 26.3644C34.7394 25.7888 34.9045 25.2144 35.2864 24.7838L36.1014 23.8647C36.6725 23.2206 36.7675 22.2833 36.337 21.5378L35.716 20.4622C35.2856 19.7167 34.4264 19.3302 33.583 19.5028L32.3813 19.7487C31.816 19.8644 31.2352 19.7186 30.7405 19.4216C30.6638 19.3755 30.5862 19.3307 30.5079 19.2871C30.0044 19.0067 29.5884 18.5769 29.4062 18.0302L29.0186 16.8675C28.7464 16.0509 27.9821 15.5 27.1213 15.5H25.8793C25.0184 15.5 24.2542 16.0509 23.9819 16.8675L23.5944 18.0302Z" fill="#1FB9FC"/>
</svg>
