<svg width="53" height="53" viewBox="0 0 53 53" fill="none" xmlns="http://www.w3.org/2000/svg">
<circle cx="26.5" cy="26.5" r="26.5" fill="#ECEAFE"/>
<path fill-rule="evenodd" clip-rule="evenodd" d="M21.5 16.625C21.9142 16.625 22.25 16.9608 22.25 17.375V18.375H30.75V17.375C30.75 16.9608 31.0858 16.625 31.5 16.625C31.9142 16.625 32.25 16.9608 32.25 17.375V18.375H33.5C35.1569 18.375 36.5 19.7181 36.5 21.375V33.375C36.5 35.0319 35.1569 36.375 33.5 36.375H19.5C17.8431 36.375 16.5 35.0319 16.5 33.375V21.375C16.5 19.7181 17.8431 18.375 19.5 18.375H20.75V17.375C20.75 16.9608 21.0858 16.625 21.5 16.625ZM30.75 19.875V21.375C30.75 21.7892 31.0858 22.125 31.5 22.125C31.9142 22.125 32.25 21.7892 32.25 21.375V19.875H33.5C34.3284 19.875 35 20.5466 35 21.375V24.625H18V21.375C18 20.5466 18.6716 19.875 19.5 19.875H20.75V21.375C20.75 21.7892 21.0858 22.125 21.5 22.125C21.9142 22.125 22.25 21.7892 22.25 21.375V19.875H30.75ZM18 26.125V33.375C18 34.2034 18.6716 34.875 19.5 34.875H33.5C34.3284 34.875 35 34.2034 35 33.375V26.125H18Z" fill="#5531FB"/>
</svg>
