<svg width="12" height="12" viewBox="0 0 12 12" fill="none" xmlns="http://www.w3.org/2000/svg">
<g clip-path="url(#clip0)">
<path fill-rule="evenodd" clip-rule="evenodd" d="M9.5 2H2.5C2.22794 2 2 2.1379 2 2.41405V10.5C2 10.7761 2.22794 11 2.5 11H9.5C9.77206 11 10 10.7761 10 10.5V6.5V2.5C10 2.22386 9.77206 2 9.5 2ZM1.98523 1C1.4411 1 1 1.44771 1 2V11C1 11.5523 1.4411 12 1.98523 12H10.0148C10.5589 12 11 11.5523 11 11V2C11 1.44772 10.5589 1 10.0148 1H1.98523Z" fill="black"/>
<path fill-rule="evenodd" clip-rule="evenodd" d="M8.88208 0.195897C9.02217 0.198136 9.13416 0.299131 9.1322 0.421475L9.09899 2.49956C9.09704 2.62191 8.98188 2.71927 8.84179 2.71703C8.70169 2.71479 8.58971 2.6138 8.59166 2.49145L8.62487 0.413367C8.62683 0.291023 8.74198 0.193658 8.88208 0.195897Z" fill="black"/>
<path fill-rule="evenodd" clip-rule="evenodd" d="M3.3125 0.195897C3.45259 0.198136 3.56458 0.29876 3.56264 0.420647L3.52955 2.49098C3.5276 2.61286 3.41245 2.70986 3.27236 2.70762C3.13226 2.70538 3.02027 2.60476 3.02222 2.48287L3.05531 0.412539C3.05725 0.290652 3.1724 0.193658 3.3125 0.195897Z" fill="black"/>
<path fill-rule="evenodd" clip-rule="evenodd" d="M8.86485 3.51479C9.00496 3.51479 9.11855 3.4012 9.11855 3.26109C9.11855 3.12098 9.00496 3.00739 8.86485 3.00739C8.72474 3.00739 8.61115 3.12098 8.61115 3.26109C8.61115 3.4012 8.72474 3.51479 8.86485 3.51479ZM8.86485 4.02218C9.28519 4.02218 9.62594 3.68143 9.62594 3.26109C9.62594 2.84075 9.28519 2.5 8.86485 2.5C8.44451 2.5 8.10376 2.84075 8.10376 3.26109C8.10376 3.68143 8.44451 4.02218 8.86485 4.02218Z" fill="black"/>
<path fill-rule="evenodd" clip-rule="evenodd" d="M3.29112 3.51479C3.43123 3.51479 3.54482 3.4012 3.54482 3.26109C3.54482 3.12098 3.43123 3.00739 3.29112 3.00739C3.15101 3.00739 3.03742 3.12098 3.03742 3.26109C3.03742 3.4012 3.15101 3.51479 3.29112 3.51479ZM3.29112 4.02218C3.71146 4.02218 4.05221 3.68143 4.05221 3.26109C4.05221 2.84075 3.71146 2.5 3.29112 2.5C2.87078 2.5 2.53003 2.84075 2.53003 3.26109C2.53003 3.68143 2.87078 4.02218 3.29112 4.02218Z" fill="black"/>
<rect x="3" y="6" width="6" height="1" rx="0.2" fill="black"/>
</g>
<defs>
<clipPath id="clip0">
<rect width="12" height="12" fill="white"/>
</clipPath>
</defs>
</svg>
