<svg id="Layer_1" data-name="Layer 1" xmlns="http://www.w3.org/2000/svg" viewBox="0 0 9.68 17.12"><defs><style>.cls-1{fill:#fff;}</style></defs><title>chevron_w</title><path class="cls-1" d="M24.22,23a19.7,19.7,0,0,0-5.34,6.42l2.24,1.12A17.07,17.07,0,0,1,25.78,25a21.79,21.79,0,0,1,2-1.42c.25-.15.45-.27.59-.34l.15-.08,0,0h0V20.88h0l0,0-.15-.08c-.14-.07-.34-.19-.59-.34a21.79,21.79,0,0,1-2-1.42,17.07,17.07,0,0,1-4.66-5.58l-2.24,1.12A19.81,19.81,0,0,0,24.22,21q.75.59,1.38,1Q25,22.44,24.22,23Z" transform="translate(-18.88 -13.44)"/></svg>